# xmcd CD database file
#
# Track frame offsets:
#	150
#	15285
#	33887
#
# Disc length: 686 seconds
#
# Revision: 3
# Processed by: cddbd v1.5.1PL0 Copyright (c) Steve Scherf et al.
# Submitted via: CDex 1.51
#
DISCID=1102ac03
DTITLE=John Berry - Change My Mind
DYEAR=1996
DGENRE=Country
TTITLE0=Change My Mind
TTITLE1=Standing on the Edge of Goodbye
TTITLE2=Your Love Amazes Me
EXTD=http://www.sodaband.com YEAR: 1996
EXTT0=
EXTT1=
EXTT2=
PLAYORDER=
